<?xml version="1.0" encoding="UTF-8"?> <!-- Generator: Adobe Illustrator 21.1.0, SVG Export Plug-In . SVG Version: 6.00 Build 0) --> <svg xmlns="http://www.w3.org/2000/svg" xmlns:xlink="http://www.w3.org/1999/xlink" id="Layer_1" x="0px" y="0px" width="1604px" height="648px" viewBox="0 0 1604 648" style="enable-background:new 0 0 1604 648;" xml:space="preserve"> <style type="text/css"> .st0{fill:#FFFFFF;} </style> <g> <path class="st0" d="M230.5,88.8l53.3,79.9v423.6h88.8V355.3h59.2v236.9h88.8V177.6l-59.2-88.8H230.5z M431.8,266.5h-59.2v-88.8 h59.2V266.5z"></path> <polygon class="st0" points="1261,177.6 1320.3,88.8 1083.3,88.8 1083.3,592.2 1261,592.2 1320.3,503.4 1320.3,414.5 1231.4,414.5 1231.4,503.4 1172.2,503.4 1172.2,355.3 1261,355.3 1320.3,266.5 1172.2,266.5 1172.2,177.6 "></polygon> <polygon class="st0" points="698.3,286.2 550.3,88.8 550.3,592.2 639.1,592.2 639.1,355.3 698.3,434.3 698.3,592.2 787.2,592.2 787.2,207.2 698.3,88.8 "></polygon> <polygon class="st0" points="816.8,88.8 816.8,592.2 994.5,592.2 1053.7,503.4 1053.7,266.5 964.9,266.5 905.7,266.5 964.9,355.3 964.9,503.4 905.7,503.4 905.7,266.5 905.7,177.6 964.9,177.6 964.9,236.8 1053.7,236.8 1053.7,177.6 1053.7,88.8 964.9,88.8 "></polygon> <path class="st0" d="M254.1,177.6l-59.2-88.8H17.2v88.8v414.6H106h88.8l59.2-88.8V340.5l-19.7-29.6l19.7-29.6V177.6z M165.3,503.4 H106V355.3h59.2V503.4z M165.3,266.5H106v-88.8h59.2V266.5z"></path> <path class="st0" d="M1438.7,355.3h59.2v236.9h88.8V340.5l-19.7-29.6l19.7-29.6V177.6V88.8h-236.9v503.5h88.8V355.3z M1438.7,177.6 h59.2v88.8h-59.2V177.6z"></path> </g> </svg> 